<svg xmlns="http://www.w3.org/2000/svg" xmlns:xlink="http://www.w3.org/1999/xlink" width="500" zoomAndPan="magnify" viewBox="0 0 375 374.999991" height="500" preserveAspectRatio="xMidYMid meet" version="1.0"><defs><g/><clipPath id="7af31d5fcd"><path d="M 139 94.773438 L 280 94.773438 L 280 216 L 139 216 Z M 139 94.773438 " clip-rule="nonzero"/></clipPath><clipPath id="5219c0b352"><path d="M 138 94.773438 L 281 94.773438 L 281 216 L 138 216 Z M 138 94.773438 " clip-rule="nonzero"/></clipPath><clipPath id="dcdf217aec"><path d="M 43 87 L 162 87 L 162 225 L 43 225 Z M 43 87 " clip-rule="nonzero"/></clipPath><clipPath id="7feeaa5820"><path d="M 29.78125 88.296875 L 142.851562 73.792969 L 161.9375 222.574219 L 48.863281 237.078125 Z M 29.78125 88.296875 " clip-rule="nonzero"/></clipPath><clipPath id="1f8f9f5b41"><path d="M 29.78125 88.296875 L 142.851562 73.792969 L 161.9375 222.574219 L 48.863281 237.078125 Z M 29.78125 88.296875 " clip-rule="nonzero"/></clipPath><clipPath id="60f5437076"><path d="M 29.78125 88.296875 L 142.851562 73.792969 L 161.9375 222.574219 L 48.863281 237.078125 Z M 29.78125 88.296875 " clip-rule="nonzero"/></clipPath><clipPath id="571135fdee"><path d="M 113 168 L 162 168 L 162 225 L 113 225 Z M 113 168 " clip-rule="nonzero"/></clipPath><clipPath id="7f65d1a50e"><path d="M 29.78125 88.296875 L 142.851562 73.792969 L 161.9375 222.574219 L 48.863281 237.078125 Z M 29.78125 88.296875 " clip-rule="nonzero"/></clipPath><clipPath id="0a06bd5274"><path d="M 29.78125 88.296875 L 142.851562 73.792969 L 161.9375 222.574219 L 48.863281 237.078125 Z M 29.78125 88.296875 " clip-rule="nonzero"/></clipPath><clipPath id="44e960f189"><path d="M 29.78125 88.296875 L 142.851562 73.792969 L 161.9375 222.574219 L 48.863281 237.078125 Z M 29.78125 88.296875 " clip-rule="nonzero"/></clipPath><clipPath id="06a27cf248"><path d="M 43 87 L 139 87 L 139 183 L 43 183 Z M 43 87 " clip-rule="nonzero"/></clipPath><clipPath id="0463821886"><path d="M 29.78125 88.296875 L 142.851562 73.792969 L 161.9375 222.574219 L 48.863281 237.078125 Z M 29.78125 88.296875 " clip-rule="nonzero"/></clipPath><clipPath id="f253ad4632"><path d="M 29.78125 88.296875 L 142.851562 73.792969 L 161.9375 222.574219 L 48.863281 237.078125 Z M 29.78125 88.296875 " clip-rule="nonzero"/></clipPath><clipPath id="b307ed9fe2"><path d="M 29.78125 88.296875 L 142.851562 73.792969 L 161.9375 222.574219 L 48.863281 237.078125 Z M 29.78125 88.296875 " clip-rule="nonzero"/></clipPath><clipPath id="a87e5f223a"><path d="M 50 95 L 131 95 L 131 176 L 50 176 Z M 50 95 " clip-rule="nonzero"/></clipPath><clipPath id="ea0c5a9bde"><path d="M 29.78125 88.296875 L 142.851562 73.792969 L 161.9375 222.574219 L 48.863281 237.078125 Z M 29.78125 88.296875 " clip-rule="nonzero"/></clipPath><clipPath id="bd4468687b"><path d="M 29.78125 88.296875 L 142.851562 73.792969 L 161.9375 222.574219 L 48.863281 237.078125 Z M 29.78125 88.296875 " clip-rule="nonzero"/></clipPath><clipPath id="66e1bccda3"><path d="M 29.78125 88.296875 L 142.851562 73.792969 L 161.9375 222.574219 L 48.863281 237.078125 Z M 29.78125 88.296875 " clip-rule="nonzero"/></clipPath><clipPath id="f927a745cc"><path d="M 75 102 L 133 102 L 133 188 L 75 188 Z M 75 102 " clip-rule="nonzero"/></clipPath><clipPath id="c23acfc1c4"><path d="M 29.78125 88.296875 L 142.851562 73.792969 L 161.9375 222.574219 L 48.863281 237.078125 Z M 29.78125 88.296875 " clip-rule="nonzero"/></clipPath><clipPath id="00798d6c2c"><path d="M 29.78125 88.296875 L 142.851562 73.792969 L 161.9375 222.574219 L 48.863281 237.078125 Z M 29.78125 88.296875 " clip-rule="nonzero"/></clipPath><clipPath id="c9b6540796"><path d="M 29.78125 88.296875 L 142.851562 73.792969 L 161.9375 222.574219 L 48.863281 237.078125 Z M 29.78125 88.296875 " clip-rule="nonzero"/></clipPath></defs><g clip-path="url(#7af31d5fcd)"><path fill="#ffffff" d="M 263.523438 215.785156 L 262.324219 215.613281 C 262.324219 215.613281 263.609375 213.640625 267.492188 205.039062 C 271.375 196.433594 267.632812 194.058594 264.148438 195.261719 C 266.40625 190.285156 259.496094 190.515625 258.210938 191.773438 C 256.984375 187.796875 257.980469 187.742188 252.472656 188.257812 C 246.960938 188.742188 222.945312 215.585938 222.945312 215.585938 C 222.945312 215.585938 168.863281 215.757812 148.246094 215.757812 C 143.304688 209.8125 138.363281 200.804688 140.105469 196.519531 C 141.878906 192.257812 147.101562 190.457031 147.101562 190.457031 C 147.101562 190.457031 146.273438 189.886719 145.132812 181.566406 C 144.847656 154.035156 157.355469 145.429688 169.03125 135.652344 C 172.632812 117.816406 186.195312 99.117188 193.847656 94.828125 C 203.84375 102.0625 216.378906 123.417969 216.378906 123.417969 L 232.511719 127.648438 C 232.511719 127.648438 251.898438 106.265625 260.550781 101.976562 C 268.605469 109.554688 271.375 121.074219 272.601562 128.191406 C 275.429688 144.832031 272.601562 153.808594 272.601562 153.808594 C 272.601562 153.808594 279.226562 164.441406 279.226562 179.566406 C 279.226562 188 278.199219 196.519531 273.230469 204.78125 C 270.773438 208.867188 263.523438 215.785156 263.523438 215.785156 Z M 234.339844 152.121094 C 231.65625 151.207031 226.113281 160.039062 231.113281 158.808594 C 236.136719 157.582031 237.023438 153.035156 234.339844 152.121094 Z M 234.339844 152.121094 " fill-opacity="1" fill-rule="nonzero"/></g><path fill="#ef5454" d="M 269.605469 122.445312 C 269.605469 122.445312 274.714844 144.972656 262.238281 159.953125 C 267.0625 166.558594 265.320312 194.03125 228.800781 202.921875 C 197.988281 211.699219 168.433594 205.980469 151.984375 190.542969 C 154.441406 196.117188 158.4375 203.949219 163.578125 208.925781 C 157.667969 205.464844 150.1875 198.289062 147.332031 190.230469 C 147.929688 197.519531 152.386719 208.523438 163.035156 215.699219 C 179.628906 215.730469 251.929688 215.699219 251.929688 215.699219 C 251.929688 215.699219 272.660156 205.582031 277.914062 187.542969 C 281.285156 167.015625 272.632812 154.808594 272.632812 154.808594 C 272.632812 154.808594 274.714844 142.515625 274.03125 135.824219 C 273.230469 128.648438 269.605469 122.445312 269.605469 122.445312 Z M 248.730469 206.382812 C 246.046875 207.726562 246.304688 203.492188 248.730469 202.980469 C 251.15625 202.492188 251.414062 205.09375 248.730469 206.382812 Z M 248.730469 206.382812 " fill-opacity="0.298" fill-rule="nonzero"/><path fill="#2b0806" d="M 167.003906 114.382812 C 158.554688 114.898438 156.382812 125.648438 156.097656 127.421875 C 156.097656 127.59375 156.097656 127.679688 156.097656 127.679688 C 156.097656 127.679688 156.097656 127.621094 156.070312 127.5625 C 156.070312 127.648438 156.039062 127.679688 156.039062 127.679688 C 156.039062 127.679688 156.039062 127.59375 156.039062 127.421875 C 155.753906 125.648438 153.699219 114.957031 145.132812 114.382812 C 153.613281 113.871094 155.785156 103.121094 156.070312 101.347656 C 156.070312 101.175781 156.070312 101.089844 156.070312 101.089844 C 156.070312 101.089844 156.070312 101.148438 156.097656 101.234375 C 156.097656 101.148438 156.125 101.089844 156.125 101.089844 C 156.125 101.089844 156.125 101.175781 156.125 101.347656 C 156.382812 103.121094 158.4375 113.8125 167.003906 114.382812 Z M 146.503906 125.449219 C 146.503906 125.363281 146.503906 125.332031 146.503906 125.332031 C 146.503906 125.332031 146.503906 125.363281 146.503906 125.390625 C 146.503906 125.363281 146.503906 125.332031 146.503906 125.332031 C 146.503906 125.332031 146.503906 125.390625 146.503906 125.449219 C 146.332031 126.304688 145.273438 131.652344 141.078125 131.910156 C 145.304688 132.195312 146.332031 137.484375 146.476562 138.371094 C 146.476562 138.457031 146.476562 138.484375 146.476562 138.484375 C 146.476562 138.484375 146.476562 138.457031 146.476562 138.425781 C 146.476562 138.457031 146.476562 138.484375 146.476562 138.484375 C 146.476562 138.484375 146.476562 138.425781 146.476562 138.371094 C 146.617188 137.511719 147.703125 132.167969 151.871094 131.910156 C 147.675781 131.652344 146.675781 126.335938 146.503906 125.449219 Z M 146.503906 125.449219 " fill-opacity="1" fill-rule="nonzero"/><path fill="#efb07d" d="M 168.976562 135.710938 Z M 168.976562 135.683594 C 169.003906 135.683594 169.003906 135.683594 168.976562 135.683594 C 169.003906 135.683594 169.003906 135.683594 168.976562 135.683594 Z M 264.691406 147.917969 C 271.402344 135.597656 258.640625 110.351562 258.640625 110.351562 C 255.042969 114.46875 251.214844 130.363281 250.644531 134.082031 C 255.5 135.625 262.410156 140 264.691406 147.917969 Z M 169.003906 135.683594 C 169.003906 135.683594 169.03125 135.652344 169.003906 135.683594 C 169.03125 135.652344 169.003906 135.683594 169.003906 135.683594 Z M 216.378906 123.445312 C 216.378906 123.445312 203.015625 103.148438 193.617188 95.945312 C 189.648438 98.402344 186.222656 101.492188 183.023438 106.265625 C 185.136719 103.722656 187.480469 101.632812 189.964844 100.40625 C 189.964844 100.40625 178.742188 112.753906 174.257812 131.136719 C 177.429688 130.792969 185.136719 131.394531 185.136719 131.394531 C 185.136719 131.394531 173.859375 131.9375 164.921875 140.601562 C 161.238281 142.257812 158.382812 143.859375 153.5 150.664062 C 151.929688 155.550781 167.347656 177.679688 197.730469 165.355469 C 226.601562 153.636719 218.660156 124.074219 218.660156 124.074219 Z M 267.578125 194.859375 C 266.035156 194.574219 264.179688 195.289062 264.179688 195.289062 C 264.179688 195.289062 265.0625 191.601562 262.324219 191.027344 C 259.582031 190.457031 257.097656 192.6875 257.097656 192.6875 C 257.097656 192.6875 258.953125 188.371094 254.414062 187.597656 C 248.046875 186.570312 222.832031 215.757812 222.832031 215.757812 L 263.523438 215.757812 C 263.523438 215.785156 272.230469 197.976562 267.578125 194.859375 Z M 267.578125 194.859375 " fill-opacity="1" fill-rule="nonzero"/><path fill="#fcc85e" d="M 146.503906 129.078125 C 146.503906 129.050781 146.503906 129.019531 146.503906 129.019531 C 146.503906 129.019531 146.503906 129.019531 146.503906 129.078125 C 146.503906 129.019531 146.503906 129.019531 146.503906 129.019531 C 146.503906 129.019531 146.503906 129.050781 146.503906 129.078125 C 146.417969 129.449219 145.960938 131.792969 144.105469 131.910156 C 145.988281 132.050781 146.417969 134.367188 146.476562 134.738281 C 146.476562 134.769531 146.476562 134.796875 146.476562 134.796875 C 146.476562 134.796875 146.476562 134.796875 146.476562 134.769531 C 146.476562 134.796875 146.476562 134.796875 146.476562 134.796875 C 146.476562 134.796875 146.476562 134.769531 146.476562 134.738281 C 146.53125 134.367188 147.015625 132.023438 148.84375 131.910156 C 147.015625 131.765625 146.558594 129.480469 146.503906 129.078125 Z M 156.097656 122.390625 C 156.097656 122.390625 156.097656 122.359375 156.097656 122.304688 C 156.097656 122.359375 156.097656 122.390625 156.097656 122.390625 C 156.125 122.390625 156.125 122.332031 156.125 122.246094 C 156.296875 121.1875 157.582031 114.726562 162.695312 114.382812 C 157.527344 114.042969 156.324219 107.609375 156.125 106.523438 C 156.125 106.4375 156.125 106.378906 156.125 106.378906 C 156.125 106.378906 156.125 106.40625 156.125 106.464844 C 156.125 106.40625 156.125 106.378906 156.125 106.378906 C 156.125 106.378906 156.125 106.4375 156.125 106.523438 C 155.953125 107.582031 154.671875 114.042969 149.558594 114.382812 C 154.726562 114.726562 155.925781 121.160156 156.125 122.246094 C 156.097656 122.332031 156.097656 122.390625 156.097656 122.390625 Z M 156.097656 122.390625 " fill-opacity="1" fill-rule="nonzero"/><path fill="#ef5454" d="M 216.175781 124.417969 C 212.351562 123.761719 204.785156 122.644531 197.902344 125.21875 C 200.671875 116.441406 193.789062 96.832031 193.789062 96.832031 C 204.613281 101.121094 217.890625 122.988281 216.175781 124.417969 Z M 265.40625 195.003906 C 265.40625 195.003906 267.292969 197.117188 262.609375 204.78125 C 257.953125 212.441406 254.8125 215.785156 254.8125 215.785156 L 262.207031 215.785156 C 262.207031 215.785156 270.375 201.605469 269.546875 196.519531 C 268.691406 191.457031 265.40625 195.003906 265.40625 195.003906 Z M 160.296875 113.699219 C 158.152344 113.5 155.441406 114.585938 155.984375 121.675781 C 156.039062 121.929688 156.070312 122.101562 156.097656 122.21875 C 156.097656 122.304688 156.097656 122.359375 156.097656 122.359375 C 156.097656 122.359375 156.097656 122.332031 156.097656 122.273438 C 156.097656 122.332031 156.097656 122.359375 156.097656 122.359375 C 156.097656 122.359375 156.097656 122.304688 156.097656 122.21875 C 156.269531 121.160156 157.554688 114.699219 162.664062 114.355469 C 161.75 114.328125 160.980469 114.097656 160.296875 113.699219 Z M 146.390625 134.222656 C 146.445312 134.480469 146.503906 134.652344 146.503906 134.738281 C 146.503906 134.769531 146.503906 134.796875 146.503906 134.796875 C 146.503906 134.796875 146.503906 134.796875 146.503906 134.769531 C 146.503906 134.796875 146.503906 134.796875 146.503906 134.796875 C 146.503906 134.796875 146.503906 134.769531 146.503906 134.738281 C 146.558594 134.367188 147.046875 132.023438 148.875 131.910156 C 148.585938 131.878906 148.359375 131.824219 148.128906 131.707031 C 147.359375 131.621094 146.21875 131.878906 146.390625 134.222656 Z M 146.390625 134.222656 " fill-opacity="0.298" fill-rule="nonzero"/><g clip-path="url(#5219c0b352)"><path fill="#2b0806" d="M 215.519531 166.613281 C 215.75 171.304688 208.925781 174.21875 205.953125 167.703125 C 199.246094 174.417969 196.617188 166.613281 196.617188 166.613281 C 184.308594 175.191406 183.796875 196.519531 204.269531 196.519531 C 226.230469 196.519531 223.886719 172.90625 215.519531 166.613281 Z M 248.730469 134.851562 C 258.46875 138.253906 264.691406 147.945312 264.691406 147.945312 C 264.691406 147.945312 263.152344 141.601562 259.125 138.199219 C 255.269531 134.96875 251.757812 132.882812 251.757812 132.882812 C 251.757812 132.882812 256.441406 114.183594 258.609375 110.351562 C 258.640625 110.351562 252.472656 116.414062 248.730469 134.851562 Z M 270.347656 199.207031 C 271.175781 192.542969 266.71875 192.832031 265.265625 194.089844 C 266.550781 190.773438 261.378906 188.371094 258.667969 191.171875 C 259.238281 186.371094 254.527344 183.710938 247.445312 189.398438 C 241.050781 194.574219 228.628906 207.179688 221.289062 215.785156 C 223.832031 215.785156 224.800781 215.785156 224.800781 215.785156 C 224.800781 215.785156 236.28125 203.066406 242.792969 196.546875 C 249.300781 190.027344 253.355469 188.171875 255.8125 189.714844 C 257.355469 190.714844 257.125 194.058594 257.125 194.058594 C 257.125 194.058594 260.582031 191.085938 262.75 192.371094 C 264.519531 193.402344 263.609375 195.402344 262.78125 197.234375 C 265.605469 194.402344 269.03125 195.574219 268.261719 199.804688 C 267.691406 203.121094 263.351562 211.839844 261.378906 215.730469 L 265.0625 215.730469 C 265.0625 215.730469 270.832031 211.011719 273.257812 206.550781 C 273.257812 202.09375 272.660156 202.894531 272.660156 202.894531 C 272.660156 202.894531 270.890625 205.695312 266.921875 210.039062 C 267.605469 208.898438 269.976562 202.121094 270.347656 199.207031 Z M 226.773438 151.292969 C 221.003906 157.066406 221.003906 166.5 226.773438 172.304688 C 232.539062 178.078125 241.964844 178.078125 247.757812 172.304688 C 253.527344 166.527344 253.527344 157.09375 247.757812 151.292969 C 241.992188 145.488281 232.597656 145.488281 226.773438 151.292969 Z M 169.605469 141.601562 C 163.835938 147.375 163.835938 156.808594 169.605469 162.613281 C 175.371094 168.386719 184.796875 168.386719 190.59375 162.613281 C 196.390625 156.835938 196.359375 147.402344 190.59375 141.601562 C 184.824219 135.796875 175.371094 135.824219 169.605469 141.601562 Z M 273.917969 154.550781 C 280 133.425781 266.632812 108.179688 266.632812 108.179688 C 265.234375 105.351562 263.550781 102.464844 261.496094 99.746094 C 258.953125 99.519531 245.53125 111.183594 231.882812 125.476562 C 231.882812 125.476562 225.773438 123.417969 217.890625 122.988281 C 215.722656 118.128906 208.152344 105.777344 193.875 94.859375 C 190.878906 95.289062 175.457031 108.238281 168.660156 135.253906 C 155.640625 142.199219 140.679688 160.984375 144.648438 184.738281 C 144.933594 186.371094 145.5625 188.800781 146.019531 190.257812 L 144.789062 190.742188 C 144.789062 190.742188 134.824219 195.230469 140.933594 205.722656 C 147.046875 216.214844 147.675781 215.816406 147.675781 215.816406 L 150.359375 215.816406 C 150.359375 215.816406 142.621094 206.636719 141.5625 200.0625 C 140.792969 195.402344 144.5625 193.289062 146.476562 192.628906 C 155.984375 211.984375 173.972656 215.84375 173.972656 215.84375 L 181.113281 215.84375 C 181.113281 215.84375 151.214844 208.953125 147.160156 183.996094 C 145.761719 175.363281 147.386719 167.101562 149.871094 160.324219 C 149.871094 160.355469 149.871094 160.382812 149.871094 160.382812 C 158.953125 139.3125 178.371094 132.765625 178.371094 132.765625 C 175.742188 132.796875 173.203125 133.28125 170.890625 134.140625 C 174.289062 121.875 181.710938 107.265625 193.820312 96.859375 C 201.699219 102.777344 211.980469 117.730469 215.007812 122.933594 C 212.523438 122.933594 209.867188 123.132812 207.238281 123.617188 C 207.382812 124.332031 225.515625 126.449219 232.511719 127.734375 C 237.621094 122.417969 251.785156 108.238281 260.550781 102.0625 C 265.578125 109.210938 268.71875 120.1875 270.574219 127.132812 C 271.144531 129.679688 271.546875 132.050781 271.859375 134.28125 C 272.460938 140.3125 272.144531 147.347656 271.089844 154.921875 C 271.890625 155.75 272.6875 157.152344 273.058594 157.839844 C 273.089844 157.894531 273.117188 157.925781 273.117188 157.980469 C 274.773438 161.210938 276.941406 167.386719 277.570312 178.105469 C 278.769531 198.519531 269.632812 207.125 269.632812 207.125 C 269.632812 207.125 270.519531 210.839844 268.207031 213.070312 C 284.824219 196.519531 282.796875 169.101562 273.917969 154.550781 Z M 273.917969 154.550781 " fill-opacity="1" fill-rule="nonzero"/></g><path fill="#ef5454" d="M 204.441406 193.546875 C 197.730469 193.546875 193.703125 190.828125 191.878906 187.085938 C 203.042969 174.503906 217.519531 178.59375 218.605469 178.878906 C 219.234375 185.941406 215.949219 193.546875 204.441406 193.546875 Z M 204.441406 193.546875 C 197.730469 193.546875 193.703125 190.828125 191.878906 187.085938 C 203.042969 174.503906 217.519531 178.59375 218.605469 178.878906 C 219.234375 185.941406 215.949219 193.546875 204.441406 193.546875 Z M 204.441406 193.546875 " fill-opacity="1" fill-rule="nonzero"/><path fill="#ffffff" d="M 171.746094 146.261719 C 171.03125 143.660156 178.828125 139.171875 180.683594 141.65625 C 183.910156 145.945312 172.660156 149.632812 171.746094 146.261719 Z M 190.476562 149.148438 C 189.792969 145.632812 185.109375 145.03125 181.425781 148.691406 C 177.742188 152.320312 172.289062 150.890625 170.460938 152.921875 C 168.578125 154.949219 171.804688 163.527344 179.457031 163.527344 C 185.878906 163.527344 192.363281 159.066406 190.476562 149.148438 Z M 228.941406 155.835938 C 228.226562 153.234375 236.023438 148.746094 237.878906 151.234375 C 241.105469 155.492188 229.855469 159.183594 228.941406 155.835938 Z M 247.675781 158.722656 C 246.988281 155.207031 242.304688 154.609375 238.621094 158.265625 C 234.9375 161.898438 229.484375 160.46875 227.65625 162.5 C 225.773438 164.527344 229 173.105469 236.652344 173.105469 C 243.046875 173.105469 249.558594 168.644531 247.675781 158.722656 Z M 247.675781 158.722656 " fill-opacity="1" fill-rule="nonzero"/><g clip-path="url(#dcdf217aec)"><g clip-path="url(#7feeaa5820)"><g clip-path="url(#1f8f9f5b41)"><g clip-path="url(#60f5437076)"><path fill="#f95c32" d="M 161.007812 215.269531 L 149.332031 224.144531 L 120.988281 187.03125 L 120.816406 187.207031 L 120.449219 186.957031 L 120.347656 186.671875 L 120.515625 186.414062 L 113.363281 177.050781 C 93.0625 188.0625 67.203125 182.980469 52.773438 164.085938 C 36.832031 143.214844 40.878906 113.390625 61.8125 97.476562 C 82.742188 81.558594 112.636719 85.578125 128.578125 106.449219 C 143.007812 125.339844 141.058594 151.566406 125.035156 168.175781 L 132.195312 177.546875 L 132.484375 177.417969 L 132.824219 177.550781 L 132.792969 177.898438 L 132.664062 178.164062 Z M 161.007812 215.269531 " fill-opacity="1" fill-rule="nonzero"/></g></g></g></g><g clip-path="url(#571135fdee)"><g clip-path="url(#7f65d1a50e)"><g clip-path="url(#0a06bd5274)"><g clip-path="url(#44e960f189)"><path fill="#f95c32" d="M 149.332031 224.144531 L 120.988281 187.03125 L 121.332031 186.808594 L 121.644531 186.539062 L 122.011719 186.347656 L 122.292969 186.046875 L 122.679688 185.875 L 122.945312 185.554688 L 123.308594 185.355469 L 123.636719 185.113281 L 123.960938 184.867188 L 124.265625 184.59375 L 124.5625 184.308594 L 124.953125 184.152344 L 125.273438 183.902344 L 125.546875 183.589844 L 125.914062 183.394531 L 126.214844 183.117188 L 126.554688 182.890625 L 126.84375 182.597656 L 127.210938 182.40625 L 127.519531 182.144531 L 127.820312 181.863281 L 128.183594 181.667969 L 128.453125 181.347656 L 128.804688 181.140625 L 129.117188 180.878906 L 129.449219 180.644531 L 129.789062 180.417969 L 130.140625 180.210938 L 130.410156 179.894531 L 130.769531 179.691406 L 131.0625 179.40625 L 131.402344 179.179688 L 131.703125 178.90625 L 132.042969 178.679688 L 132.351562 178.421875 L 132.664062 178.164062 L 161.007812 215.269531 Z M 120.851562 186.1875 L 121.105469 185.851562 L 121.460938 185.648438 L 121.8125 185.441406 L 122.070312 185.109375 L 122.394531 184.863281 L 122.765625 184.675781 L 123.078125 184.417969 L 123.371094 184.128906 L 123.746094 183.957031 L 124.046875 183.679688 L 124.375 183.433594 L 124.738281 183.238281 L 125.039062 182.964844 L 125.355469 182.707031 L 125.703125 182.496094 L 125.996094 182.207031 L 126.308594 181.941406 L 126.664062 181.738281 L 126.960938 181.457031 L 127.253906 181.167969 L 127.59375 180.941406 L 127.9375 180.714844 L 128.226562 180.421875 L 128.628906 180.28125 L 128.949219 180.03125 L 129.222656 179.714844 L 129.542969 179.464844 L 129.867188 179.214844 L 130.203125 178.984375 L 130.578125 178.800781 L 130.886719 178.53125 L 131.207031 178.277344 L 131.550781 178.058594 L 131.832031 177.746094 L 132.195312 177.546875 L 125.035156 168.175781 C 123.355469 169.914062 121.523438 171.550781 119.539062 173.058594 C 117.554688 174.570312 115.488281 175.898438 113.363281 177.050781 L 120.515625 186.417969 Z M 120.851562 186.1875 " fill-opacity="1" fill-rule="nonzero"/></g></g></g></g><g clip-path="url(#06a27cf248)"><g clip-path="url(#0463821886)"><g clip-path="url(#f253ad4632)"><g clip-path="url(#b307ed9fe2)"><path fill="#ffc440" d="M 125.035156 168.175781 C 141.058594 151.566406 143.007812 125.339844 128.578125 106.449219 C 112.636719 85.578125 82.742188 81.558594 61.8125 97.476562 C 40.878906 113.390625 36.832031 143.214844 52.773438 164.085938 C 67.203125 182.980469 93.0625 188.0625 113.363281 177.050781 C 115.488281 175.898438 117.554688 174.570312 119.539062 173.058594 C 121.527344 171.550781 123.359375 169.914062 125.035156 168.175781 Z M 58.875 159.449219 C 45.5 141.933594 48.894531 116.914062 66.457031 103.558594 C 84.019531 90.203125 109.101562 93.574219 122.476562 111.085938 C 135.851562 128.597656 132.457031 153.621094 114.894531 166.976562 C 97.332031 180.328125 72.25 176.960938 58.875 159.449219 Z M 58.875 159.449219 " fill-opacity="1" fill-rule="nonzero"/></g></g></g></g><g clip-path="url(#a87e5f223a)"><g clip-path="url(#ea0c5a9bde)"><g clip-path="url(#bd4468687b)"><g clip-path="url(#66e1bccda3)"><path fill="#fffade" d="M 122.476562 111.085938 C 109.101562 93.574219 84.019531 90.203125 66.457031 103.558594 C 48.894531 116.914062 45.5 141.933594 58.875 159.449219 C 72.25 176.960938 97.332031 180.332031 114.894531 166.976562 C 132.457031 153.621094 135.851562 128.597656 122.476562 111.085938 Z M 95.027344 103.460938 L 94.628906 103.324219 L 94.222656 103.253906 L 93.808594 103.253906 L 93.398438 103.1875 L 92.980469 103.246094 L 92.570312 103.199219 L 92.164062 103.121094 L 91.75 103.125 L 91.339844 103.074219 L 90.929688 103.0625 L 90.519531 103.015625 L 90.105469 102.992188 L 89.691406 103.0625 L 89.28125 103.042969 L 88.867188 103.011719 L 88.457031 103.03125 L 88.042969 103.046875 L 87.628906 103.019531 L 87.214844 103.027344 L 86.804688 103.058594 L 86.394531 103.101562 L 85.984375 103.171875 L 85.570312 103.164062 L 85.160156 103.195312 L 84.761719 103.363281 L 84.34375 103.332031 L 83.929688 103.351562 L 83.535156 103.503906 L 83.132812 103.589844 L 82.703125 103.539062 L 82.304688 103.652344 L 81.910156 103.785156 L 81.515625 103.90625 L 81.09375 103.914062 L 80.6875 103.984375 L 80.28125 104.058594 L 79.890625 104.1875 L 79.492188 104.300781 L 79.113281 104.476562 L 78.679688 104.453125 L 78.316406 104.691406 L 77.886719 104.695312 L 77.492188 104.808594 L 77.117188 104.996094 L 76.714844 105.09375 L 76.34375 105.277344 L 75.941406 105.375 L 75.652344 105.328125 L 75.464844 105.125 L 75.433594 104.832031 L 75.636719 104.550781 L 76.058594 104.5 L 76.445312 104.359375 L 76.835938 104.222656 L 77.222656 104.082031 L 77.609375 103.9375 L 77.992188 103.785156 L 78.402344 103.71875 L 78.8125 103.660156 L 79.191406 103.472656 L 79.609375 103.4375 L 80 103.304688 L 80.398438 103.199219 L 80.785156 103.046875 L 81.207031 103.042969 L 81.613281 102.980469 L 82.003906 102.824219 L 82.414062 102.777344 L 82.835938 102.789062 L 83.21875 102.585938 L 83.628906 102.523438 L 84.050781 102.570312 L 84.453125 102.460938 L 84.855469 102.367188 L 85.277344 102.425781 L 85.683594 102.328125 L 86.089844 102.253906 L 86.507812 102.285156 L 86.917969 102.253906 L 87.328125 102.246094 L 87.742188 102.261719 L 88.152344 102.21875 L 88.5625 102.132812 L 88.976562 102.179688 L 89.386719 102.242188 L 89.800781 102.195312 L 90.210938 102.175781 L 90.625 102.175781 L 91.035156 102.242188 L 91.445312 102.253906 L 91.859375 102.285156 L 92.269531 102.304688 L 92.679688 102.34375 L 93.09375 102.332031 L 93.503906 102.351562 L 93.917969 102.386719 L 94.320312 102.492188 L 94.726562 102.5625 L 95.140625 102.566406 L 95.539062 102.683594 L 95.953125 102.695312 L 96.351562 102.804688 L 96.765625 102.839844 L 97.160156 102.96875 L 97.574219 103 L 97.96875 103.121094 L 98.367188 103.222656 L 98.796875 103.199219 L 99.195312 103.296875 L 99.578125 103.46875 L 99.996094 103.496094 L 100.394531 103.617188 L 100.773438 103.78125 L 101.167969 103.902344 L 101.5625 104.019531 L 101.972656 104.09375 L 102.328125 104.328125 L 102.726562 104.425781 L 103.128906 104.527344 L 103.503906 104.699219 L 103.878906 104.878906 L 104.300781 104.929688 L 104.683594 105.082031 L 105.050781 105.273438 L 105.425781 105.4375 L 105.828125 105.546875 L 106.167969 105.796875 L 106.546875 105.957031 L 106.910156 106.148438 L 107.28125 106.324219 L 107.699219 106.414062 L 108.070312 106.59375 L 108.390625 106.867188 L 108.773438 107.03125 L 109.125 107.242188 L 109.457031 107.488281 L 109.828125 107.671875 L 110.214844 107.824219 L 110.589844 108.003906 L 110.933594 108.234375 L 111.285156 108.449219 L 111.566406 108.765625 L 111.9375 108.957031 L 112.140625 109.21875 L 112.117188 109.582031 L 111.75 109.667969 L 111.425781 109.71875 L 111.121094 109.433594 L 110.75 109.25 L 110.394531 109.042969 L 110.105469 108.726562 L 109.742188 108.527344 L 109.386719 108.316406 L 108.992188 108.179688 L 108.671875 107.910156 L 108.289062 107.75 L 107.898438 107.605469 L 107.527344 107.425781 L 107.1875 107.191406 L 106.804688 107.03125 L 106.472656 106.769531 L 106.0625 106.671875 L 105.671875 106.539062 L 105.34375 106.261719 L 104.925781 106.191406 L 104.550781 106.019531 L 104.195312 105.800781 L 103.78125 105.726562 L 103.394531 105.585938 L 103.039062 105.363281 L 102.640625 105.25 L 101.875 104.9375 L 101.464844 104.863281 L 101.082031 104.707031 L 100.667969 104.648438 L 100.28125 104.507812 L 99.875 104.429688 L 99.460938 104.375 L 99.070312 104.253906 L 98.671875 104.152344 L 98.269531 104.0625 L 97.859375 103.996094 L 97.484375 103.777344 L 97.070312 103.746094 L 96.675781 103.617188 L 96.25 103.648438 L 95.847656 103.570312 L 95.4375 103.523438 Z M 95.027344 103.460938 " fill-opacity="1" fill-rule="nonzero"/></g></g></g></g><g clip-path="url(#f927a745cc)"><g clip-path="url(#c23acfc1c4)"><g clip-path="url(#00798d6c2c)"><g clip-path="url(#c9b6540796)"><path fill="#1b1b2b" d="M 95.84375 103.570312 L 95.4375 103.519531 L 95.027344 103.460938 L 94.628906 103.324219 L 94.222656 103.253906 L 93.808594 103.253906 L 93.398438 103.1875 L 92.980469 103.246094 L 92.570312 103.199219 L 92.164062 103.121094 L 91.75 103.125 L 91.339844 103.074219 L 90.929688 103.0625 L 90.519531 103.015625 L 90.105469 102.992188 L 89.691406 103.0625 L 89.28125 103.042969 L 88.867188 103.011719 L 88.457031 103.03125 L 88.042969 103.046875 L 87.628906 103.019531 L 87.214844 103.027344 L 86.804688 103.058594 L 86.394531 103.097656 L 85.984375 103.171875 L 85.570312 103.164062 L 85.160156 103.195312 L 84.761719 103.363281 L 84.34375 103.332031 L 83.929688 103.347656 L 83.535156 103.503906 L 83.132812 103.589844 L 82.703125 103.539062 L 82.304688 103.652344 L 81.910156 103.785156 L 81.515625 103.90625 L 81.09375 103.914062 L 80.6875 103.984375 L 80.28125 104.058594 L 79.890625 104.1875 L 79.492188 104.300781 L 79.113281 104.476562 L 78.679688 104.453125 L 78.316406 104.691406 L 77.886719 104.695312 L 77.492188 104.808594 L 77.117188 104.996094 L 76.714844 105.09375 L 76.34375 105.277344 L 75.941406 105.375 L 75.652344 105.328125 L 75.464844 105.125 L 75.433594 104.832031 L 75.636719 104.550781 L 76.058594 104.5 L 76.445312 104.359375 L 76.835938 104.222656 L 77.222656 104.082031 L 77.609375 103.9375 L 77.992188 103.785156 L 78.402344 103.71875 L 78.8125 103.660156 L 79.191406 103.472656 L 79.609375 103.4375 L 80 103.304688 L 80.398438 103.199219 L 80.785156 103.046875 L 81.207031 103.042969 L 81.613281 102.980469 L 82.003906 102.824219 L 82.414062 102.777344 L 82.835938 102.789062 L 83.21875 102.585938 L 83.628906 102.523438 L 84.050781 102.570312 L 84.453125 102.460938 L 84.855469 102.367188 L 85.277344 102.425781 L 85.683594 102.328125 L 86.089844 102.253906 L 86.507812 102.285156 L 86.917969 102.253906 L 87.328125 102.246094 L 87.742188 102.261719 L 88.152344 102.21875 L 88.5625 102.132812 L 88.976562 102.179688 L 89.386719 102.242188 L 89.800781 102.195312 L 90.210938 102.175781 L 90.625 102.175781 L 91.035156 102.242188 L 91.445312 102.253906 L 91.859375 102.285156 L 92.269531 102.304688 L 92.679688 102.34375 L 93.09375 102.332031 L 93.503906 102.351562 L 93.917969 102.386719 L 94.320312 102.492188 L 94.726562 102.5625 L 95.140625 102.566406 L 95.539062 102.683594 L 95.953125 102.695312 L 96.351562 102.804688 L 96.765625 102.839844 L 97.160156 102.96875 L 97.574219 103 L 97.96875 103.121094 L 98.367188 103.222656 L 98.796875 103.199219 L 99.195312 103.296875 L 99.578125 103.46875 L 99.996094 103.496094 L 100.394531 103.617188 L 100.773438 103.78125 L 101.167969 103.902344 L 101.5625 104.019531 L 101.972656 104.09375 L 102.328125 104.328125 L 102.726562 104.425781 L 103.128906 104.527344 L 103.503906 104.699219 L 103.878906 104.878906 L 104.300781 104.929688 L 104.683594 105.082031 L 105.050781 105.273438 L 105.425781 105.4375 L 105.828125 105.546875 L 106.167969 105.796875 L 106.546875 105.957031 L 106.910156 106.148438 L 107.28125 106.324219 L 107.699219 106.414062 L 108.070312 106.59375 L 108.390625 106.867188 L 108.773438 107.03125 L 109.125 107.242188 L 109.457031 107.488281 L 109.828125 107.671875 L 110.214844 107.824219 L 110.589844 108.003906 L 110.933594 108.234375 L 111.285156 108.449219 L 111.566406 108.765625 L 111.9375 108.957031 L 112.140625 109.21875 L 112.117188 109.582031 L 111.75 109.667969 L 111.425781 109.71875 L 111.121094 109.433594 L 110.75 109.25 L 110.394531 109.042969 L 110.105469 108.726562 L 109.742188 108.527344 L 109.386719 108.316406 L 108.992188 108.179688 L 108.671875 107.910156 L 108.289062 107.75 L 107.898438 107.605469 L 107.527344 107.425781 L 107.1875 107.191406 L 106.804688 107.03125 L 106.472656 106.769531 L 106.0625 106.671875 L 105.671875 106.539062 L 105.34375 106.261719 L 104.925781 106.191406 L 104.550781 106.019531 L 104.195312 105.800781 L 103.78125 105.726562 L 103.394531 105.585938 L 103.039062 105.363281 L 102.640625 105.25 L 101.875 104.9375 L 101.464844 104.863281 L 101.082031 104.707031 L 100.667969 104.648438 L 100.28125 104.507812 L 99.875 104.429688 L 99.460938 104.375 L 99.070312 104.253906 L 98.671875 104.152344 L 98.269531 104.0625 L 97.859375 103.996094 L 97.484375 103.777344 L 97.070312 103.746094 L 96.675781 103.617188 L 96.25 103.648438 Z M 121.332031 186.808594 L 121.644531 186.539062 L 122.011719 186.347656 L 122.292969 186.046875 L 122.679688 185.875 L 122.945312 185.554688 L 123.308594 185.355469 L 123.636719 185.113281 L 123.960938 184.867188 L 124.265625 184.59375 L 124.5625 184.308594 L 124.953125 184.152344 L 125.273438 183.902344 L 125.546875 183.589844 L 125.914062 183.394531 L 126.214844 183.117188 L 126.554688 182.890625 L 126.84375 182.597656 L 127.210938 182.40625 L 127.519531 182.144531 L 127.820312 181.863281 L 128.183594 181.667969 L 128.453125 181.347656 L 128.804688 181.140625 L 129.117188 180.878906 L 129.449219 180.644531 L 129.789062 180.417969 L 130.140625 180.210938 L 130.410156 179.894531 L 130.769531 179.691406 L 131.0625 179.40625 L 131.402344 179.179688 L 131.703125 178.90625 L 132.042969 178.679688 L 132.667969 178.164062 L 132.792969 177.898438 L 132.824219 177.550781 L 132.488281 177.417969 L 132.195312 177.546875 L 131.832031 177.746094 L 131.554688 178.058594 L 131.207031 178.277344 L 130.886719 178.53125 L 130.578125 178.800781 L 130.203125 178.984375 L 129.867188 179.214844 L 129.542969 179.464844 L 129.222656 179.714844 L 128.949219 180.03125 L 128.628906 180.28125 L 128.226562 180.421875 L 127.9375 180.714844 L 127.59375 180.941406 L 127.257812 181.167969 L 126.960938 181.457031 L 126.664062 181.734375 L 126.308594 181.941406 L 125.996094 182.207031 L 125.707031 182.492188 L 125.355469 182.707031 L 125.039062 182.964844 L 124.738281 183.238281 L 124.375 183.433594 L 124.050781 183.679688 L 123.75 183.953125 L 123.371094 184.128906 L 123.082031 184.417969 L 122.765625 184.675781 L 122.394531 184.863281 L 122.074219 185.109375 L 121.816406 185.441406 L 121.460938 185.648438 L 121.105469 185.851562 L 120.855469 186.1875 L 120.515625 186.414062 L 120.347656 186.671875 L 120.449219 186.957031 L 120.816406 187.207031 L 120.988281 187.03125 Z M 121.332031 186.808594 " fill-opacity="1" fill-rule="nonzero"/></g></g></g></g><g fill="#000000" fill-opacity="1"><g transform="translate(66.603544, 264.227195)"><g><path d="M 15.058594 0 L 15.058594 -3.25 L 5.648438 -3.25 L 5.648438 -21.761719 L 2.023438 -21.761719 L 2.023438 0 Z M 15.058594 0 "/></g></g></g><g fill="#000000" fill-opacity="1"><g transform="translate(81.999864, 264.227195)"><g><path d="M 9.15625 0.3125 C 13.347656 0.3125 15.773438 -2.226562 16.714844 -5.277344 L 13.234375 -5.277344 C 12.664062 -3.851562 11.265625 -2.625 9.242188 -2.625 C 7.414062 -2.625 5.902344 -3.707031 5.164062 -5.503906 C 4.878906 -5.988281 4.707031 -6.675781 4.621094 -7.273438 L 17 -7.273438 L 17 -8.128906 C 17 -13.664062 13.148438 -16.230469 9.070312 -16.230469 C 3.820312 -16.230469 1.199219 -12.09375 1.199219 -7.902344 C 1.199219 -3.195312 4.390625 0.3125 9.15625 0.3125 Z M 4.820312 -9.925781 C 4.90625 -10.355469 5.046875 -10.925781 5.390625 -11.4375 C 6.1875 -12.777344 7.53125 -13.492188 9.183594 -13.492188 C 10.78125 -13.492188 12.207031 -12.804688 12.976562 -11.4375 C 13.292969 -10.953125 13.433594 -10.382812 13.492188 -9.925781 Z M 4.820312 -9.925781 "/></g></g></g><g fill="#000000" fill-opacity="1"><g transform="translate(100.161819, 264.227195)"><g><path d="M 9.699219 0 L 9.699219 -2.824219 L 8.015625 -2.824219 C 6.617188 -2.824219 6.472656 -3.59375 6.472656 -4.621094 L 6.472656 -13.148438 L 9.726562 -13.148438 L 9.726562 -15.945312 L 6.472656 -15.945312 L 6.472656 -21.761719 L 3.109375 -21.761719 L 3.109375 -15.945312 L 0.714844 -15.945312 L 0.714844 -13.148438 L 3.109375 -13.148438 L 3.109375 -3.679688 C 3.109375 -0.941406 4.476562 0 6.84375 0 Z M 9.699219 0 "/></g></g></g><g fill="#000000" fill-opacity="1"><g transform="translate(110.88222, 264.227195)"><g><path d="M 3.90625 -14.0625 L 3.90625 -21.761719 L 1.199219 -21.761719 L 1.199219 -14.0625 Z M 3.90625 -14.0625 "/></g></g></g><g fill="#000000" fill-opacity="1"><g transform="translate(116.014323, 264.227195)"><g><path d="M 8.558594 0.3125 C 12.605469 0.3125 14.972656 -1.710938 14.972656 -4.734375 C 14.972656 -8.355469 11.664062 -9.011719 8.84375 -9.527344 C 6.789062 -9.925781 4.992188 -10.269531 4.992188 -11.722656 C 4.992188 -12.835938 6.046875 -13.519531 7.757812 -13.519531 C 9.496094 -13.519531 10.925781 -12.75 11.410156 -10.953125 L 14.574219 -10.953125 C 14.003906 -14.289062 11.378906 -16.230469 7.757812 -16.230469 C 4.476562 -16.230469 1.710938 -14.746094 1.710938 -11.550781 C 1.710938 -8.070312 4.90625 -7.445312 7.644531 -6.902344 C 9.753906 -6.472656 11.636719 -6.074219 11.636719 -4.449219 C 11.636719 -3.136719 10.355469 -2.425781 8.558594 -2.425781 C 6.332031 -2.425781 4.90625 -3.480469 4.449219 -5.277344 L 1.054688 -5.277344 C 1.597656 -1.484375 4.792969 0.3125 8.558594 0.3125 Z M 8.558594 0.3125 "/></g></g></g><g fill="#000000" fill-opacity="1"><g transform="translate(132.237478, 264.227195)"><g/></g></g><g fill="#000000" fill-opacity="1"><g transform="translate(139.992658, 264.227195)"><g><path d="M 8.558594 0.3125 C 12.605469 0.3125 14.972656 -1.710938 14.972656 -4.734375 C 14.972656 -8.355469 11.664062 -9.011719 8.84375 -9.527344 C 6.789062 -9.925781 4.992188 -10.269531 4.992188 -11.722656 C 4.992188 -12.835938 6.046875 -13.519531 7.757812 -13.519531 C 9.496094 -13.519531 10.925781 -12.75 11.410156 -10.953125 L 14.574219 -10.953125 C 14.003906 -14.289062 11.378906 -16.230469 7.757812 -16.230469 C 4.476562 -16.230469 1.710938 -14.746094 1.710938 -11.550781 C 1.710938 -8.070312 4.90625 -7.445312 7.644531 -6.902344 C 9.753906 -6.472656 11.636719 -6.074219 11.636719 -4.449219 C 11.636719 -3.136719 10.355469 -2.425781 8.558594 -2.425781 C 6.332031 -2.425781 4.90625 -3.480469 4.449219 -5.277344 L 1.054688 -5.277344 C 1.597656 -1.484375 4.792969 0.3125 8.558594 0.3125 Z M 8.558594 0.3125 "/></g></g></g><g fill="#000000" fill-opacity="1"><g transform="translate(156.215813, 264.227195)"><g><path d="M 9.15625 0.3125 C 13.347656 0.3125 15.773438 -2.226562 16.714844 -5.277344 L 13.234375 -5.277344 C 12.664062 -3.851562 11.265625 -2.625 9.242188 -2.625 C 7.414062 -2.625 5.902344 -3.707031 5.164062 -5.503906 C 4.878906 -5.988281 4.707031 -6.675781 4.621094 -7.273438 L 17 -7.273438 L 17 -8.128906 C 17 -13.664062 13.148438 -16.230469 9.070312 -16.230469 C 3.820312 -16.230469 1.199219 -12.09375 1.199219 -7.902344 C 1.199219 -3.195312 4.390625 0.3125 9.15625 0.3125 Z M 4.820312 -9.925781 C 4.90625 -10.355469 5.046875 -10.925781 5.390625 -11.4375 C 6.1875 -12.777344 7.53125 -13.492188 9.183594 -13.492188 C 10.78125 -13.492188 12.207031 -12.804688 12.976562 -11.4375 C 13.292969 -10.953125 13.433594 -10.382812 13.492188 -9.925781 Z M 4.820312 -9.925781 "/></g></g></g><g fill="#000000" fill-opacity="1"><g transform="translate(174.377768, 264.227195)"><g><path d="M 6.390625 0.3125 C 7.816406 0.3125 9.070312 0.0859375 10.070312 -0.570312 C 10.695312 -0.96875 11.238281 -1.539062 11.664062 -2.28125 L 11.664062 0 L 15.03125 0 L 15.03125 -8.640625 C 15.03125 -10.46875 15.03125 -12.976562 13.261719 -14.632812 C 12.066406 -15.714844 10.324219 -16.230469 8.472656 -16.230469 C 5.363281 -16.230469 2.367188 -14.519531 1.796875 -10.925781 L 5.164062 -10.925781 C 5.476562 -12.550781 6.84375 -13.519531 8.441406 -13.519531 C 9.46875 -13.519531 10.269531 -13.207031 10.839844 -12.636719 C 11.378906 -12.066406 11.664062 -11.265625 11.695312 -10.183594 L 6.644531 -9.242188 C 5.191406 -8.957031 3.90625 -8.558594 2.9375 -7.84375 C 1.855469 -7.046875 1.199219 -5.902344 1.199219 -4.335938 C 1.199219 -1.367188 3.335938 0.3125 6.390625 0.3125 Z M 7.128906 -2.425781 C 5.617188 -2.425781 4.5625 -3.136719 4.5625 -4.421875 C 4.5625 -5.019531 4.761719 -5.476562 5.132812 -5.847656 C 5.617188 -6.304688 6.332031 -6.589844 7.472656 -6.816406 L 11.722656 -7.644531 C 11.722656 -5.363281 11.210938 -3.851562 9.328125 -2.910156 C 8.671875 -2.59375 7.929688 -2.425781 7.128906 -2.425781 Z M 7.128906 -2.425781 "/></g></g></g><g fill="#000000" fill-opacity="1"><g transform="translate(191.085626, 264.227195)"><g><path d="M 5.21875 0 L 5.21875 -7.699219 C 5.21875 -9.753906 5.648438 -11.09375 6.53125 -11.921875 C 7.214844 -12.605469 8.15625 -12.949219 9.46875 -12.949219 L 10.324219 -12.949219 L 10.324219 -16.230469 L 9.953125 -16.230469 C 7.984375 -16.230469 6.53125 -15.660156 5.21875 -13.949219 L 5.21875 -15.945312 L 1.855469 -15.945312 L 1.855469 0 Z M 5.21875 0 "/></g></g></g><g fill="#000000" fill-opacity="1"><g transform="translate(201.977093, 264.227195)"><g><path d="M 9.128906 0.3125 C 12.890625 0.3125 15.773438 -1.769531 16.515625 -5.277344 L 12.863281 -5.277344 C 12.4375 -3.59375 11.09375 -2.511719 9.128906 -2.511719 C 6.472656 -2.511719 4.621094 -4.707031 4.621094 -8.042969 C 4.621094 -11.265625 6.472656 -13.433594 9.128906 -13.433594 C 10.925781 -13.433594 12.234375 -12.519531 12.777344 -10.925781 L 16.429688 -10.925781 C 15.6875 -14.175781 12.890625 -16.230469 9.128906 -16.230469 C 4.390625 -16.230469 1.199219 -12.835938 1.199219 -8.042969 C 1.199219 -3.082031 4.421875 0.3125 9.128906 0.3125 Z M 9.128906 0.3125 "/></g></g></g><g fill="#000000" fill-opacity="1"><g transform="translate(219.483279, 264.227195)"><g><path d="M 5.21875 0 L 5.21875 -7.671875 C 5.21875 -10.183594 5.5625 -11.523438 6.332031 -12.378906 C 6.902344 -13.0625 7.730469 -13.40625 8.898438 -13.40625 C 9.867188 -13.40625 10.582031 -13.175781 11.066406 -12.636719 C 11.636719 -12.007812 11.894531 -10.980469 11.894531 -9.328125 L 11.894531 0 L 15.257812 0 L 15.257812 -9.328125 C 15.257812 -10.722656 15.257812 -12.207031 14.574219 -13.632812 C 13.832031 -15.089844 12.464844 -16.230469 9.699219 -16.230469 C 7.984375 -16.230469 6.617188 -15.660156 5.21875 -13.777344 L 5.21875 -21.761719 L 1.855469 -21.761719 L 1.855469 0 Z M 5.21875 0 "/></g></g></g><g fill="#000000" fill-opacity="1"><g transform="translate(236.476255, 264.227195)"><g/></g></g><g fill="#000000" fill-opacity="1"><g transform="translate(244.231435, 264.227195)"><g><path d="M 6.589844 0 L 6.589844 -13.175781 L 9.753906 -13.175781 L 9.753906 -15.945312 L 6.589844 -15.945312 L 6.589844 -17.113281 C 6.589844 -18.484375 7.214844 -18.996094 8.273438 -18.996094 L 9.753906 -18.996094 L 9.753906 -21.761719 L 7.472656 -21.761719 C 4.675781 -21.761719 3.195312 -20.28125 3.195312 -17.597656 L 3.195312 -15.945312 L 0.683594 -15.945312 L 0.683594 -13.175781 L 3.195312 -13.175781 L 3.195312 0 Z M 6.589844 0 "/></g></g></g><g fill="#000000" fill-opacity="1"><g transform="translate(254.581185, 264.227195)"><g><path d="M 9.210938 0.3125 C 14.003906 0.3125 17.257812 -3.136719 17.257812 -8.042969 C 17.257812 -12.835938 13.949219 -16.230469 9.210938 -16.230469 C 4.476562 -16.230469 1.199219 -12.835938 1.199219 -8.042969 C 1.199219 -3.082031 4.476562 0.3125 9.210938 0.3125 Z M 9.210938 -2.625 C 6.558594 -2.625 4.621094 -4.820312 4.621094 -8.042969 C 4.621094 -11.125 6.53125 -13.320312 9.210938 -13.320312 C 11.894531 -13.320312 13.804688 -11.066406 13.804688 -8.042969 C 13.804688 -4.878906 11.894531 -2.625 9.210938 -2.625 Z M 9.210938 -2.625 "/></g></g></g><g fill="#000000" fill-opacity="1"><g transform="translate(273.028259, 264.227195)"><g><path d="M 5.21875 0 L 5.21875 -7.699219 C 5.21875 -9.753906 5.648438 -11.09375 6.53125 -11.921875 C 7.214844 -12.605469 8.15625 -12.949219 9.46875 -12.949219 L 10.324219 -12.949219 L 10.324219 -16.230469 L 9.953125 -16.230469 C 7.984375 -16.230469 6.53125 -15.660156 5.21875 -13.949219 L 5.21875 -15.945312 L 1.855469 -15.945312 L 1.855469 0 Z M 5.21875 0 "/></g></g></g><g fill="#000000" fill-opacity="1"><g transform="translate(283.919738, 264.227195)"><g/></g></g><g fill="#000000" fill-opacity="1"><g transform="translate(291.674918, 264.227195)"><g><path d="M 6.390625 0.3125 C 7.816406 0.3125 9.070312 0.0859375 10.070312 -0.570312 C 10.695312 -0.96875 11.238281 -1.539062 11.664062 -2.28125 L 11.664062 0 L 15.03125 0 L 15.03125 -8.640625 C 15.03125 -10.46875 15.03125 -12.976562 13.261719 -14.632812 C 12.066406 -15.714844 10.324219 -16.230469 8.472656 -16.230469 C 5.363281 -16.230469 2.367188 -14.519531 1.796875 -10.925781 L 5.164062 -10.925781 C 5.476562 -12.550781 6.84375 -13.519531 8.441406 -13.519531 C 9.46875 -13.519531 10.269531 -13.207031 10.839844 -12.636719 C 11.378906 -12.066406 11.664062 -11.265625 11.695312 -10.183594 L 6.644531 -9.242188 C 5.191406 -8.957031 3.90625 -8.558594 2.9375 -7.84375 C 1.855469 -7.046875 1.199219 -5.902344 1.199219 -4.335938 C 1.199219 -1.367188 3.335938 0.3125 6.390625 0.3125 Z M 7.128906 -2.425781 C 5.617188 -2.425781 4.5625 -3.136719 4.5625 -4.421875 C 4.5625 -5.019531 4.761719 -5.476562 5.132812 -5.847656 C 5.617188 -6.304688 6.332031 -6.589844 7.472656 -6.816406 L 11.722656 -7.644531 C 11.722656 -5.363281 11.210938 -3.851562 9.328125 -2.910156 C 8.671875 -2.59375 7.929688 -2.425781 7.128906 -2.425781 Z M 7.128906 -2.425781 "/></g></g></g><g fill="#000000" fill-opacity="1"><g transform="translate(103.646511, 303.977193)"><g><path d="M 8.558594 0.3125 C 12.605469 0.3125 14.972656 -1.710938 14.972656 -4.734375 C 14.972656 -8.355469 11.664062 -9.011719 8.84375 -9.527344 C 6.789062 -9.925781 4.992188 -10.269531 4.992188 -11.722656 C 4.992188 -12.835938 6.046875 -13.519531 7.757812 -13.519531 C 9.496094 -13.519531 10.925781 -12.75 11.410156 -10.953125 L 14.574219 -10.953125 C 14.003906 -14.289062 11.378906 -16.230469 7.757812 -16.230469 C 4.476562 -16.230469 1.710938 -14.746094 1.710938 -11.550781 C 1.710938 -8.070312 4.90625 -7.445312 7.644531 -6.902344 C 9.753906 -6.472656 11.636719 -6.074219 11.636719 -4.449219 C 11.636719 -3.136719 10.355469 -2.425781 8.558594 -2.425781 C 6.332031 -2.425781 4.90625 -3.480469 4.449219 -5.277344 L 1.054688 -5.277344 C 1.597656 -1.484375 4.792969 0.3125 8.558594 0.3125 Z M 8.558594 0.3125 "/></g></g></g><g fill="#000000" fill-opacity="1"><g transform="translate(119.869666, 303.977193)"><g><path d="M 9.699219 0 L 9.699219 -2.824219 L 8.015625 -2.824219 C 6.617188 -2.824219 6.472656 -3.59375 6.472656 -4.621094 L 6.472656 -13.148438 L 9.726562 -13.148438 L 9.726562 -15.945312 L 6.472656 -15.945312 L 6.472656 -21.761719 L 3.109375 -21.761719 L 3.109375 -15.945312 L 0.714844 -15.945312 L 0.714844 -13.148438 L 3.109375 -13.148438 L 3.109375 -3.679688 C 3.109375 -0.941406 4.476562 0 6.84375 0 Z M 9.699219 0 "/></g></g></g><g fill="#000000" fill-opacity="1"><g transform="translate(130.590067, 303.977193)"><g><path d="M 6.390625 0.3125 C 7.816406 0.3125 9.070312 0.0859375 10.070312 -0.570312 C 10.695312 -0.96875 11.238281 -1.539062 11.664062 -2.28125 L 11.664062 0 L 15.03125 0 L 15.03125 -8.640625 C 15.03125 -10.46875 15.03125 -12.976562 13.261719 -14.632812 C 12.066406 -15.714844 10.324219 -16.230469 8.472656 -16.230469 C 5.363281 -16.230469 2.367188 -14.519531 1.796875 -10.925781 L 5.164062 -10.925781 C 5.476562 -12.550781 6.84375 -13.519531 8.441406 -13.519531 C 9.46875 -13.519531 10.269531 -13.207031 10.839844 -12.636719 C 11.378906 -12.066406 11.664062 -11.265625 11.695312 -10.183594 L 6.644531 -9.242188 C 5.191406 -8.957031 3.90625 -8.558594 2.9375 -7.84375 C 1.855469 -7.046875 1.199219 -5.902344 1.199219 -4.335938 C 1.199219 -1.367188 3.335938 0.3125 6.390625 0.3125 Z M 7.128906 -2.425781 C 5.617188 -2.425781 4.5625 -3.136719 4.5625 -4.421875 C 4.5625 -5.019531 4.761719 -5.476562 5.132812 -5.847656 C 5.617188 -6.304688 6.332031 -6.589844 7.472656 -6.816406 L 11.722656 -7.644531 C 11.722656 -5.363281 11.210938 -3.851562 9.328125 -2.910156 C 8.671875 -2.59375 7.929688 -2.425781 7.128906 -2.425781 Z M 7.128906 -2.425781 "/></g></g></g><g fill="#000000" fill-opacity="1"><g transform="translate(147.297925, 303.977193)"><g><path d="M 9.699219 0 L 9.699219 -2.824219 L 8.015625 -2.824219 C 6.617188 -2.824219 6.472656 -3.59375 6.472656 -4.621094 L 6.472656 -13.148438 L 9.726562 -13.148438 L 9.726562 -15.945312 L 6.472656 -15.945312 L 6.472656 -21.761719 L 3.109375 -21.761719 L 3.109375 -15.945312 L 0.714844 -15.945312 L 0.714844 -13.148438 L 3.109375 -13.148438 L 3.109375 -3.679688 C 3.109375 -0.941406 4.476562 0 6.84375 0 Z M 9.699219 0 "/></g></g></g><g fill="#000000" fill-opacity="1"><g transform="translate(158.018326, 303.977193)"><g><path d="M 7.332031 0.3125 C 9.183594 0.3125 10.496094 -0.429688 11.808594 -2.167969 L 11.808594 0 L 15.175781 0 L 15.175781 -15.945312 L 11.808594 -15.945312 L 11.808594 -8.242188 C 11.808594 -5.789062 11.496094 -4.421875 10.695312 -3.535156 C 10.097656 -2.878906 9.269531 -2.511719 8.128906 -2.511719 C 7.128906 -2.511719 6.417969 -2.765625 5.960938 -3.28125 C 5.390625 -3.90625 5.132812 -4.933594 5.132812 -6.589844 L 5.132812 -15.945312 L 1.769531 -15.945312 L 1.769531 -6.617188 C 1.769531 -4.476562 1.941406 -3.335938 2.453125 -2.308594 C 3.308594 -0.570312 4.933594 0.3125 7.332031 0.3125 Z M 7.332031 0.3125 "/></g></g></g><g fill="#000000" fill-opacity="1"><g transform="translate(175.011302, 303.977193)"><g><path d="M 8.558594 0.3125 C 12.605469 0.3125 14.972656 -1.710938 14.972656 -4.734375 C 14.972656 -8.355469 11.664062 -9.011719 8.84375 -9.527344 C 6.789062 -9.925781 4.992188 -10.269531 4.992188 -11.722656 C 4.992188 -12.835938 6.046875 -13.519531 7.757812 -13.519531 C 9.496094 -13.519531 10.925781 -12.75 11.410156 -10.953125 L 14.574219 -10.953125 C 14.003906 -14.289062 11.378906 -16.230469 7.757812 -16.230469 C 4.476562 -16.230469 1.710938 -14.746094 1.710938 -11.550781 C 1.710938 -8.070312 4.90625 -7.445312 7.644531 -6.902344 C 9.753906 -6.472656 11.636719 -6.074219 11.636719 -4.449219 C 11.636719 -3.136719 10.355469 -2.425781 8.558594 -2.425781 C 6.332031 -2.425781 4.90625 -3.480469 4.449219 -5.277344 L 1.054688 -5.277344 C 1.597656 -1.484375 4.792969 0.3125 8.558594 0.3125 Z M 8.558594 0.3125 "/></g></g></g><g fill="#000000" fill-opacity="1"><g transform="translate(191.234457, 303.977193)"><g/></g></g><g fill="#000000" fill-opacity="1"><g transform="translate(198.989637, 303.977193)"><g><path d="M 9.128906 0.3125 C 12.890625 0.3125 15.773438 -1.769531 16.515625 -5.277344 L 12.863281 -5.277344 C 12.4375 -3.59375 11.09375 -2.511719 9.128906 -2.511719 C 6.472656 -2.511719 4.621094 -4.707031 4.621094 -8.042969 C 4.621094 -11.265625 6.472656 -13.433594 9.128906 -13.433594 C 10.925781 -13.433594 12.234375 -12.519531 12.777344 -10.925781 L 16.429688 -10.925781 C 15.6875 -14.175781 12.890625 -16.230469 9.128906 -16.230469 C 4.390625 -16.230469 1.199219 -12.835938 1.199219 -8.042969 C 1.199219 -3.082031 4.421875 0.3125 9.128906 0.3125 Z M 9.128906 0.3125 "/></g></g></g><g fill="#000000" fill-opacity="1"><g transform="translate(216.495823, 303.977193)"><g><path d="M 9.210938 0.3125 C 14.003906 0.3125 17.257812 -3.136719 17.257812 -8.042969 C 17.257812 -12.835938 13.949219 -16.230469 9.210938 -16.230469 C 4.476562 -16.230469 1.199219 -12.835938 1.199219 -8.042969 C 1.199219 -3.082031 4.476562 0.3125 9.210938 0.3125 Z M 9.210938 -2.625 C 6.558594 -2.625 4.621094 -4.820312 4.621094 -8.042969 C 4.621094 -11.125 6.53125 -13.320312 9.210938 -13.320312 C 11.894531 -13.320312 13.804688 -11.066406 13.804688 -8.042969 C 13.804688 -4.878906 11.894531 -2.625 9.210938 -2.625 Z M 9.210938 -2.625 "/></g></g></g><g fill="#000000" fill-opacity="1"><g transform="translate(234.942897, 303.977193)"><g><path d="M 8.273438 0.3125 C 10.269531 0.3125 11.636719 -0.285156 13.035156 -2.167969 L 13.035156 0 L 16.402344 0 L 16.402344 -21.761719 L 13.035156 -21.761719 L 13.035156 -13.777344 C 11.609375 -15.6875 10.210938 -16.230469 8.273438 -16.230469 C 4.078125 -16.230469 1.253906 -12.835938 1.253906 -7.957031 C 1.253906 -3.082031 4.078125 0.3125 8.273438 0.3125 Z M 8.957031 -2.59375 C 6.304688 -2.59375 4.648438 -4.878906 4.648438 -7.957031 C 4.648438 -11.039062 6.304688 -13.320312 8.957031 -13.320312 C 11.550781 -13.320312 13.378906 -11.09375 13.378906 -7.957031 C 13.378906 -4.820312 11.550781 -2.59375 8.957031 -2.59375 Z M 8.957031 -2.59375 "/></g></g></g><g fill="#000000" fill-opacity="1"><g transform="translate(253.190386, 303.977193)"><g><path d="M 9.15625 0.3125 C 13.347656 0.3125 15.773438 -2.226562 16.714844 -5.277344 L 13.234375 -5.277344 C 12.664062 -3.851562 11.265625 -2.625 9.242188 -2.625 C 7.414062 -2.625 5.902344 -3.707031 5.164062 -5.503906 C 4.878906 -5.988281 4.707031 -6.675781 4.621094 -7.273438 L 17 -7.273438 L 17 -8.128906 C 17 -13.664062 13.148438 -16.230469 9.070312 -16.230469 C 3.820312 -16.230469 1.199219 -12.09375 1.199219 -7.902344 C 1.199219 -3.195312 4.390625 0.3125 9.15625 0.3125 Z M 4.820312 -9.925781 C 4.90625 -10.355469 5.046875 -10.925781 5.390625 -11.4375 C 6.1875 -12.777344 7.53125 -13.492188 9.183594 -13.492188 C 10.78125 -13.492188 12.207031 -12.804688 12.976562 -11.4375 C 13.292969 -10.953125 13.433594 -10.382812 13.492188 -9.925781 Z M 4.820312 -9.925781 "/></g></g></g></svg>