<svg xmlns="http://www.w3.org/2000/svg" xmlns:xlink="http://www.w3.org/1999/xlink" width="500" zoomAndPan="magnify" viewBox="0 0 375 374.999991" height="500" preserveAspectRatio="xMidYMid meet" version="1.0"><defs><g/></defs><g fill="#000000" fill-opacity="1"><g transform="translate(114.480465, 278.607637)"><g><path d="M 5.648438 0 L 5.648438 -16.769531 L 14.859375 0 L 19.222656 0 L 19.222656 -21.761719 L 15.628906 -21.761719 L 15.628906 -4.992188 L 6.417969 -21.761719 L 2.023438 -21.761719 L 2.023438 0 Z M 5.648438 0 "/></g></g></g><g fill="#000000" fill-opacity="1"><g transform="translate(135.750189, 278.607637)"><g><path d="M 9.210938 0.3125 C 14.003906 0.3125 17.257812 -3.136719 17.257812 -8.042969 C 17.257812 -12.835938 13.949219 -16.230469 9.210938 -16.230469 C 4.476562 -16.230469 1.199219 -12.835938 1.199219 -8.042969 C 1.199219 -3.082031 4.476562 0.3125 9.210938 0.3125 Z M 9.210938 -2.625 C 6.558594 -2.625 4.621094 -4.820312 4.621094 -8.042969 C 4.621094 -11.125 6.53125 -13.320312 9.210938 -13.320312 C 11.894531 -13.320312 13.804688 -11.066406 13.804688 -8.042969 C 13.804688 -4.878906 11.894531 -2.625 9.210938 -2.625 Z M 9.210938 -2.625 "/></g></g></g><g fill="#000000" fill-opacity="1"><g transform="translate(154.197263, 278.607637)"><g><path d="M 9.699219 0 L 9.699219 -2.824219 L 8.015625 -2.824219 C 6.617188 -2.824219 6.472656 -3.59375 6.472656 -4.621094 L 6.472656 -13.148438 L 9.726562 -13.148438 L 9.726562 -15.945312 L 6.472656 -15.945312 L 6.472656 -21.761719 L 3.109375 -21.761719 L 3.109375 -15.945312 L 0.714844 -15.945312 L 0.714844 -13.148438 L 3.109375 -13.148438 L 3.109375 -3.679688 C 3.109375 -0.941406 4.476562 0 6.84375 0 Z M 9.699219 0 "/></g></g></g><g fill="#000000" fill-opacity="1"><g transform="translate(164.917664, 278.607637)"><g/></g></g><g fill="#000000" fill-opacity="1"><g transform="translate(172.672844, 278.607637)"><g><path d="M 5.648438 0 L 5.648438 -9.296875 L 15.230469 -9.296875 L 15.230469 -12.519531 L 5.648438 -12.519531 L 5.648438 -18.511719 L 16.429688 -18.511719 L 16.429688 -21.761719 L 2.023438 -21.761719 L 2.023438 0 Z M 5.648438 0 "/></g></g></g><g fill="#000000" fill-opacity="1"><g transform="translate(189.865405, 278.607637)"><g><path d="M 9.210938 0.3125 C 14.003906 0.3125 17.257812 -3.136719 17.257812 -8.042969 C 17.257812 -12.835938 13.949219 -16.230469 9.210938 -16.230469 C 4.476562 -16.230469 1.199219 -12.835938 1.199219 -8.042969 C 1.199219 -3.082031 4.476562 0.3125 9.210938 0.3125 Z M 9.210938 -2.625 C 6.558594 -2.625 4.621094 -4.820312 4.621094 -8.042969 C 4.621094 -11.125 6.53125 -13.320312 9.210938 -13.320312 C 11.894531 -13.320312 13.804688 -11.066406 13.804688 -8.042969 C 13.804688 -4.878906 11.894531 -2.625 9.210938 -2.625 Z M 9.210938 -2.625 "/></g></g></g><g fill="#000000" fill-opacity="1"><g transform="translate(208.312478, 278.607637)"><g><path d="M 7.332031 0.3125 C 9.183594 0.3125 10.496094 -0.429688 11.808594 -2.167969 L 11.808594 0 L 15.175781 0 L 15.175781 -15.945312 L 11.808594 -15.945312 L 11.808594 -8.242188 C 11.808594 -5.789062 11.496094 -4.421875 10.695312 -3.535156 C 10.097656 -2.878906 9.269531 -2.511719 8.128906 -2.511719 C 7.128906 -2.511719 6.417969 -2.765625 5.960938 -3.28125 C 5.390625 -3.90625 5.132812 -4.933594 5.132812 -6.589844 L 5.132812 -15.945312 L 1.769531 -15.945312 L 1.769531 -6.617188 C 1.769531 -4.476562 1.941406 -3.335938 2.453125 -2.308594 C 3.308594 -0.570312 4.933594 0.3125 7.332031 0.3125 Z M 7.332031 0.3125 "/></g></g></g><g fill="#000000" fill-opacity="1"><g transform="translate(225.305455, 278.607637)"><g><path d="M 5.21875 0 L 5.21875 -7.671875 C 5.21875 -10.183594 5.535156 -11.523438 6.304688 -12.378906 C 6.875 -13.0625 7.730469 -13.40625 8.898438 -13.40625 C 9.867188 -13.40625 10.582031 -13.175781 11.066406 -12.636719 C 11.636719 -12.007812 11.867188 -10.980469 11.867188 -9.328125 L 11.867188 0 L 15.257812 0 L 15.257812 -9.328125 C 15.257812 -10.722656 15.257812 -12.207031 14.546875 -13.632812 C 13.832031 -15.089844 12.4375 -16.230469 9.667969 -16.230469 C 7.957031 -16.230469 6.617188 -15.660156 5.21875 -13.777344 L 5.21875 -15.945312 L 1.855469 -15.945312 L 1.855469 0 Z M 5.21875 0 "/></g></g></g><g fill="#000000" fill-opacity="1"><g transform="translate(242.269912, 278.607637)"><g><path d="M 8.273438 0.3125 C 10.269531 0.3125 11.636719 -0.285156 13.035156 -2.167969 L 13.035156 0 L 16.402344 0 L 16.402344 -21.761719 L 13.035156 -21.761719 L 13.035156 -13.777344 C 11.609375 -15.6875 10.210938 -16.230469 8.273438 -16.230469 C 4.078125 -16.230469 1.253906 -12.835938 1.253906 -7.957031 C 1.253906 -3.082031 4.078125 0.3125 8.273438 0.3125 Z M 8.957031 -2.59375 C 6.304688 -2.59375 4.648438 -4.878906 4.648438 -7.957031 C 4.648438 -11.039062 6.304688 -13.320312 8.957031 -13.320312 C 11.550781 -13.320312 13.378906 -11.09375 13.378906 -7.957031 C 13.378906 -4.820312 11.550781 -2.59375 8.957031 -2.59375 Z M 8.957031 -2.59375 "/></g></g></g><path fill="#ffffff" d="M 130.949219 216.023438 C 130.949219 216.023438 130.183594 216.023438 129.257812 210.957031 C 128.074219 204.609375 130.691406 192.847656 131.078125 191.921875 C 128.394531 189.914062 118.050781 180.253906 118.558594 166.894531 C 119.070312 153.535156 129.066406 140.046875 129.066406 140.046875 C 129.066406 140.046875 130.566406 111.703125 145.605469 95.636719 C 151.0625 96.175781 166.515625 109.472656 169.328125 111.960938 C 176.445312 109.792969 196.722656 110.078125 204.257812 111.894531 C 204.257812 111.894531 214.539062 100.128906 228.714844 96.273438 C 231.109375 97.132812 247.265625 124.171875 244.261719 140.304688 C 249.117188 144.703125 265.625 169.761719 242.921875 193.101562 C 247.265625 205.28125 244.519531 216.058594 244.519531 216.058594 Z M 130.949219 216.023438 C 130.949219 216.023438 129.257812 215.164062 128.808594 212.070312 C 127.820312 205.3125 130.628906 193.039062 131.078125 191.890625 C 128.394531 189.914062 118.050781 180.253906 118.558594 166.894531 C 119.070312 153.535156 129.066406 140.046875 129.066406 140.046875 C 129.066406 140.046875 129.925781 111.003906 144.964844 94.902344 C 150.425781 95.445312 166.835938 108.769531 169.644531 111.289062 C 176.765625 109.121094 196.753906 110.046875 204.289062 111.863281 C 204.289062 111.863281 214.601562 99.429688 228.808594 95.570312 C 231.203125 96.433594 247.328125 124.136719 244.292969 140.269531 C 249.148438 144.671875 265.65625 169.730469 242.953125 193.070312 C 247.296875 205.25 244.261719 216.023438 244.261719 216.023438 Z M 130.949219 216.023438 " fill-opacity="1" fill-rule="nonzero"/><path fill="#efb07d" d="M 178.9375 110.875 C 178.9375 110.875 197.710938 131.757812 173.351562 150.984375 C 148.988281 170.210938 118.015625 160.515625 122.199219 152.226562 C 122.199219 152.226562 126.253906 141.960938 130.085938 139.539062 C 127.753906 133.382812 133.246094 116.167969 138.261719 105.964844 C 138.261719 105.964844 143.304688 96.335938 145.605469 95.636719 C 147.902344 94.933594 162.8125 105.296875 168.816406 110.8125 C 172.648438 111.289062 178.9375 110.875 178.9375 110.875 Z M 227.308594 181.816406 C 224.339844 177.191406 216.132812 170.527344 214.792969 179.871094 C 211.472656 177.253906 207.703125 178.402344 208.183594 184.558594 C 205.820312 182.164062 200.234375 181.527344 199.53125 192.113281 C 198.828125 202.699219 204.480469 216.089844 204.480469 216.089844 L 232.320312 216.089844 C 232.289062 216.089844 230.277344 186.46875 227.308594 181.816406 Z M 227.308594 181.816406 " fill-opacity="1" fill-rule="nonzero"/><path fill="#ef5454" d="M 144.613281 122.863281 C 144.613281 122.863281 140.015625 129.941406 136.25 136.316406 C 136.152344 114.351562 147.007812 104.785156 147.007812 104.785156 C 144.261719 110.746094 144.613281 122.863281 144.613281 122.863281 Z M 229 122.863281 C 229 122.863281 233.183594 129.941406 236.917969 136.316406 C 237.015625 114.351562 226.160156 104.785156 226.160156 104.785156 C 228.9375 110.746094 229 122.863281 229 122.863281 Z M 136.25 179.933594 C 118.304688 166.066406 125.328125 146.648438 125.328125 146.648438 C 115.464844 157.234375 116.390625 179.582031 127.914062 190.804688 C 128.746094 191.601562 129.671875 192.367188 130.660156 193.101562 C 132.320312 188.957031 134.652344 183.601562 136.25 179.933594 Z M 247.648438 146.648438 C 247.648438 146.648438 254.574219 165.808594 237.046875 179.679688 C 238.515625 183.25 240.972656 189.117188 242.730469 192.78125 C 243.558594 192.144531 244.359375 191.476562 245.0625 190.804688 C 256.554688 179.582031 257.480469 157.234375 247.648438 146.648438 Z M 143.65625 194.535156 C 143.65625 194.535156 145.09375 185.703125 150.648438 186.882812 C 152.851562 187.363281 153.90625 190.007812 152.949219 192.527344 C 155.308594 188.222656 157.640625 188.734375 158.628906 189.050781 C 159.621094 189.371094 161.792969 191.027344 160.640625 194.855469 C 163.132812 190.871094 166.292969 192.144531 166.964844 193.261719 C 167.632812 194.34375 169.136719 195.875 165.207031 207.671875 C 163.292969 212.996094 162.144531 216.089844 162.144531 216.089844 L 142.058594 216.089844 Z M 231.554688 216.089844 L 211.472656 216.089844 C 211.472656 216.089844 210.324219 212.996094 208.40625 207.671875 C 204.480469 195.875 205.980469 194.34375 206.652344 193.261719 C 207.320312 192.175781 210.484375 190.871094 212.972656 194.855469 C 211.792969 191.027344 213.960938 189.371094 214.984375 189.050781 C 215.972656 188.734375 218.304688 188.222656 220.667969 192.527344 C 219.710938 190.007812 220.761719 187.363281 222.964844 186.882812 C 228.523438 185.703125 229.957031 194.535156 229.957031 194.535156 Z M 200.105469 201.453125 L 199.5625 197.882812 C 195.539062 198.554688 191.230469 199.351562 186.632812 199.351562 C 182.035156 199.351562 177.753906 198.554688 173.699219 197.882812 L 173.15625 201.453125 C 173.15625 201.453125 172.039062 205.503906 170.667969 209.203125 C 176.191406 210.574219 186.601562 210.957031 186.601562 210.957031 C 186.601562 210.957031 197.007812 210.574219 202.53125 209.203125 C 201.445312 205.25 200.105469 201.453125 200.105469 201.453125 Z M 211.953125 113.9375 C 211.953125 113.9375 221.082031 101.535156 228.585938 97.292969 C 228.875 96.207031 224.46875 95.378906 217.984375 100.355469 C 211.503906 105.359375 204.066406 111.832031 204.066406 111.832031 Z M 161.949219 113.9375 C 161.949219 113.9375 157.351562 101.628906 145.316406 97.292969 C 145.445312 96.050781 149.59375 96.050781 154.925781 99.429688 C 160.257812 102.808594 170.605469 111.609375 170.605469 111.609375 Z M 161.949219 113.9375 " fill-opacity="0.298" fill-rule="nonzero"/><path fill="#ffffff" d="M 144.964844 96.273438 C 144.964844 96.273438 133.4375 117.632812 134.238281 141.226562 C 127.371094 146.648438 123.796875 152.226562 120.15625 161.570312 C 120.027344 155.894531 123.414062 149.453125 129.066406 140.078125 C 129.925781 128.058594 132.578125 107.367188 144.964844 96.273438 Z M 129.351562 191.792969 C 129.351562 191.792969 130.535156 191.921875 131.460938 187.679688 C 119.871094 176.074219 119.964844 162.175781 119.964844 162.175781 C 113.898438 175.4375 129.351562 191.792969 129.351562 191.792969 Z M 253.617188 162.175781 C 253.617188 162.175781 253.714844 176.074219 242.125 187.679688 C 243.050781 191.953125 244.230469 191.792969 244.230469 191.792969 C 244.230469 191.792969 259.683594 175.4375 253.617188 162.175781 Z M 253.617188 162.175781 " fill-opacity="1" fill-rule="nonzero"/><path fill="#89e3f7" d="M 165.175781 143.683594 C 165.175781 143.683594 157.640625 153.152344 150.808594 165.363281 C 142.859375 179.648438 142.890625 216.089844 142.890625 216.089844 L 125.011719 216.089844 C 125.011719 216.089844 124.976562 179.964844 134.90625 164.597656 C 144.964844 149.007812 149.117188 148.976562 149.117188 148.976562 Z M 208.152344 143.683594 C 208.152344 143.683594 215.6875 153.152344 222.519531 165.363281 C 230.46875 179.613281 230.4375 216.089844 230.4375 216.089844 L 248.316406 216.089844 C 248.316406 216.089844 248.351562 179.964844 238.421875 164.597656 C 228.363281 149.007812 224.210938 148.976562 224.210938 148.976562 Z M 208.152344 143.683594 " fill-opacity="1" fill-rule="nonzero"/><path fill="#2b0806" d="M 249.085938 216.089844 L 231.554688 216.089844 C 231.554688 216.089844 228.585938 185.546875 227.660156 176.96875 C 242.058594 221.285156 235.515625 178.53125 234.269531 172.089844 C 238.386719 179.902344 240.75 208.851562 243.433594 201.105469 C 246.082031 193.355469 239.1875 168.457031 239.503906 168.964844 C 248.605469 183.058594 249.085938 216.089844 249.085938 216.089844 Z M 124.53125 216.089844 L 142.058594 216.089844 C 142.058594 216.089844 145.027344 185.546875 145.953125 176.96875 C 131.554688 221.285156 138.101562 178.53125 139.347656 172.089844 C 135.226562 179.902344 132.863281 208.851562 130.183594 201.105469 C 127.53125 193.355469 134.429688 168.488281 134.109375 168.964844 C 125.042969 183.058594 124.53125 216.089844 124.53125 216.089844 Z M 124.53125 216.089844 " fill-opacity="0.2" fill-rule="nonzero"/><path fill="#2b0806" d="M 197.648438 130.546875 C 195.539062 129.273438 197.105469 126.113281 199.210938 127.390625 C 200.96875 128.664062 202.085938 130.101562 205.117188 130.644531 C 206.140625 130.832031 207.066406 131.152344 207.066406 132.078125 C 207.097656 132.96875 205.726562 133.226562 204.703125 133.066406 C 202.308594 132.683594 199.722656 131.820312 197.648438 130.546875 Z M 247.710938 189.722656 C 264.730469 169.605469 252.339844 148.464844 246.019531 140.269531 C 245.285156 111.960938 231.492188 93.785156 228.011719 94.199219 C 216.199219 97.355469 204.832031 108.929688 203.171875 110.652344 C 196.371094 108.867188 190.082031 108.675781 186.984375 108.738281 C 183.886719 108.707031 177.597656 108.867188 170.796875 110.652344 C 169.101562 108.929688 157.738281 97.355469 145.921875 94.199219 C 142.410156 93.785156 128.648438 111.925781 127.882812 140.238281 C 121.59375 148.402344 109.300781 169.378906 125.96875 189.402344 C 125.648438 191.445312 125.359375 193.613281 125.136719 195.84375 C 124.339844 204.484375 123.414062 211.113281 122.964844 216.058594 L 125.585938 216.058594 C 125.585938 216.058594 126.128906 195.652344 130.117188 179.839844 C 134.207031 163.738281 144.964844 152.609375 147.488281 150.15625 C 148 150.058594 148.542969 149.964844 149.148438 149.804688 C 153.296875 148.785156 158.3125 147.636719 162.335938 146.359375 C 156.585938 152.546875 145.09375 168.007812 142.730469 194.695312 C 141.933594 203.847656 141.007812 210.828125 140.558594 216.058594 L 143.144531 216.058594 C 143.144531 216.058594 143.527344 201.070312 145.953125 186.40625 C 147.390625 182.738281 148.796875 180.378906 150.902344 178.308594 C 155.085938 174.195312 159.269531 177.511719 157.738281 183.027344 C 159.015625 181.019531 160.449219 178.851562 162.589844 179.964844 C 165.238281 181.304688 164.472656 186.628906 164.472656 186.628906 C 164.472656 186.628906 167.761719 183.3125 169.710938 184.207031 C 172.839844 185.640625 173.765625 191.792969 171.402344 202.410156 C 170.890625 204.769531 169.390625 210.285156 167.761719 216.058594 L 170.539062 216.058594 C 170.828125 215.003906 171.050781 214.144531 171.179688 213.570312 L 171.210938 213.441406 L 171.945312 210.351562 C 173.542969 203.527344 174.371094 198.296875 174.820312 194.21875 C 176 183.566406 169.421875 179.839844 166.515625 182.929688 C 167.089844 177.445312 162.109375 175.757812 159.238281 178.46875 C 159.398438 177.480469 158.917969 176.042969 157.800781 175.085938 C 156.078125 173.75 154.894531 174.132812 154.894531 174.132812 C 153.777344 174.195312 152.4375 174.609375 150.902344 175.660156 C 149.46875 176.617188 148.347656 177.925781 147.167969 179.773438 C 147.328125 179.105469 147.457031 178.46875 147.613281 177.828125 C 151.191406 162.941406 161.058594 150.28125 165.398438 145.277344 C 167.792969 144.289062 169.421875 143.238281 169.644531 142.089844 C 169.964844 140.367188 147.390625 142.566406 145.636719 143.746094 C 143.082031 145.4375 145.890625 146.457031 147.519531 145.820312 C 143.910156 147.414062 141.742188 150.378906 145.378906 150.410156 C 142.667969 152.546875 131.203125 162.71875 126.542969 185.703125 C 120.507812 177.671875 113.484375 161.601562 130.566406 140.652344 C 130.054688 134.214844 131.617188 112.117188 145.316406 97.324219 C 147.230469 96.367188 157.386719 102.074219 167.730469 111.578125 C 165.816406 112.214844 163.867188 113.011719 161.984375 113.9375 C 162.71875 114.765625 172.296875 111.671875 186.984375 111.671875 C 201.671875 111.671875 211.28125 114.765625 211.984375 113.9375 C 210.097656 112.980469 208.152344 112.214844 206.234375 111.578125 C 216.582031 102.074219 226.734375 96.335938 228.648438 97.324219 C 240.175781 111.128906 244.167969 130.226562 243.273438 140.652344 C 260.546875 161.855469 253.140625 178.085938 247.074219 186.023438 C 242.441406 162.78125 230.886719 152.546875 228.140625 150.410156 C 231.8125 150.378906 229.609375 147.414062 226 145.820312 C 227.628906 146.457031 230.4375 145.46875 227.882812 143.746094 C 226.128906 142.566406 203.554688 140.367188 203.875 142.089844 C 204.097656 143.238281 205.726562 144.289062 208.121094 145.277344 C 212.460938 150.3125 222.328125 162.941406 225.902344 177.828125 C 226.0625 178.53125 226.222656 179.230469 226.382812 179.933594 C 225.167969 177.988281 224.019531 176.648438 222.550781 175.660156 C 221.019531 174.640625 219.679688 174.195312 218.558594 174.132812 C 218.558594 174.132812 217.378906 173.75 215.65625 175.085938 C 214.539062 176.042969 214.058594 177.480469 214.21875 178.46875 C 211.34375 175.757812 206.363281 177.445312 206.9375 182.929688 C 204.03125 179.839844 197.457031 183.601562 198.636719 194.21875 C 199.085938 198.296875 199.945312 203.558594 201.511719 210.351562 L 202.246094 213.441406 L 202.277344 213.570312 C 202.40625 214.144531 202.628906 215.003906 202.914062 216.058594 L 205.691406 216.058594 C 204.066406 210.253906 202.5625 204.738281 202.054688 202.410156 C 199.722656 191.824219 200.617188 185.671875 203.746094 184.207031 C 205.726562 183.28125 208.980469 186.628906 208.980469 186.628906 C 208.980469 186.628906 208.214844 181.335938 210.867188 179.964844 C 213.003906 178.882812 214.410156 181.019531 215.71875 183.027344 C 214.1875 177.542969 218.367188 174.226562 222.550781 178.308594 C 224.722656 180.445312 226.160156 182.867188 227.628906 186.691406 C 230.023438 201.261719 230.40625 216.058594 230.40625 216.058594 L 232.992188 216.058594 C 232.546875 210.828125 231.621094 203.847656 230.820312 194.695312 C 228.457031 168.042969 216.964844 152.546875 211.21875 146.359375 C 215.238281 147.636719 220.253906 148.785156 224.402344 149.804688 C 225.011719 149.964844 225.585938 150.058594 226.0625 150.15625 C 228.585938 152.609375 239.347656 163.738281 243.433594 179.839844 C 247.457031 195.652344 247.964844 216.058594 247.964844 216.058594 L 250.554688 216.058594 C 250.105469 211.113281 249.179688 204.484375 248.382812 195.84375 C 248.285156 193.738281 248.03125 191.699219 247.710938 189.722656 Z M 173.253906 127.390625 C 171.496094 128.664062 170.378906 130.101562 167.347656 130.644531 C 166.324219 130.832031 165.398438 131.152344 165.398438 132.078125 C 165.367188 132.96875 166.742188 133.226562 167.761719 133.066406 C 170.15625 132.683594 172.742188 131.820312 174.816406 130.546875 C 176.925781 129.238281 175.359375 126.113281 173.253906 127.390625 Z M 193.242188 150.570312 C 192.761719 152.257812 192.058594 153.503906 191.484375 153.3125 C 190.878906 153.121094 190.367188 149.007812 190.273438 146.710938 C 189.089844 145.5625 187.84375 144.832031 186.632812 144.796875 C 180.375 145.054688 173.734375 162.90625 175.746094 164.183594 C 178.332031 165.777344 183.855469 166.414062 186.632812 166.414062 C 189.410156 166.414062 194.902344 165.777344 197.519531 164.183594 C 198.765625 163.386719 196.59375 155.988281 193.242188 150.570312 Z M 226.191406 104.785156 C 226.191406 104.785156 228.9375 116.296875 227.4375 125.734375 C 229.703125 126.6875 236.953125 136.316406 236.953125 136.316406 C 236.953125 136.316406 235.707031 129.878906 230.566406 124.363281 C 231.683594 118.113281 229.671875 108.039062 226.191406 104.785156 Z M 142.632812 124.363281 C 137.492188 129.878906 136.25 136.316406 136.25 136.316406 C 136.25 136.316406 143.527344 126.6875 145.761719 125.734375 C 144.261719 116.296875 147.007812 104.785156 147.007812 104.785156 C 143.496094 108.039062 141.484375 118.113281 142.632812 124.363281 Z M 142.632812 124.363281 " fill-opacity="1" fill-rule="nonzero"/><path fill="#ef5454" d="M 194.644531 158.730469 C 195.253906 160.738281 195.414062 162.269531 194.933594 162.589844 C 192.953125 163.832031 188.707031 164.3125 186.601562 164.3125 C 184.460938 164.3125 180.246094 163.832031 178.265625 162.589844 C 177.851562 162.335938 177.914062 161.15625 178.332031 159.558594 C 186.183594 151.910156 192.058594 155.957031 194.644531 158.730469 Z M 194.644531 158.730469 C 195.253906 160.738281 195.414062 162.269531 194.933594 162.589844 C 192.953125 163.832031 188.707031 164.3125 186.601562 164.3125 C 184.460938 164.3125 180.246094 163.832031 178.265625 162.589844 C 177.851562 162.335938 177.914062 161.15625 178.332031 159.558594 C 186.183594 151.910156 192.058594 155.957031 194.644531 158.730469 Z M 194.644531 158.730469 " fill-opacity="1" fill-rule="nonzero"/></svg>